<?xml version="1.0" encoding="UTF-8"?>
<!DOCTYPE svg PUBLIC "-//W3C//DTD SVG 1.1//EN" "http://www.w3.org/Graphics/SVG/1.1/DTD/svg11.dtd">
<!-- Creator: CorelDRAW -->
<svg xmlns="http://www.w3.org/2000/svg" xml:space="preserve" width="210mm" height="297mm" version="1.1" style="shape-rendering:geometricPrecision; text-rendering:geometricPrecision; image-rendering:optimizeQuality; fill-rule:evenodd; clip-rule:evenodd"
viewBox="0 0 21000 29700"
 xmlns:xlink="http://www.w3.org/1999/xlink">
 <defs>
  <style type="text/css">
   <![CDATA[
    .fil0 {fill:#0048CC}
    .fil2 {fill:#319900}
    .fil1 {fill:#656565}
    .fil3 {fill:#1D1819;fill-rule:nonzero}
   ]]>
  </style>
 </defs>
 <g id="Layer_x0020_1">
  <metadata id="CorelCorpID_0Corel-Layer"/>
  <g id="BMKG.cdr">
   <g>
    <path class="fil0" d="M5790 11088c541,-281 1143,-386 1661,6l126 0c81,-183 185,-358 305,-526l-1872 0c-108,157 -177,332 -220,520z"/>
    <path class="fil0" d="M7744 8687c1605,-1057 3618,-1218 5510,-3l-5510 3z"/>
    <path class="fil0" d="M6886 9361l7230 10c242,261 391,437 561,691l-4243 0c-646,-295 -1304,-287 -1921,0l-2186 -3c164,-266 349,-501 559,-698z"/>
    <path class="fil0" d="M11069 10571l3909 -2c111,155 181,328 231,510l-2352 8c-463,-316 -969,-305 -1399,-1l-83 0c-82,-178 -181,-353 -306,-515z"/>
    <path class="fil0" d="M13165 11409l2166 6c64,120 99,246 106,377l-974 5c-380,-231 -766,-277 -1119,-29l-19 0c-25,-127 -74,-248 -160,-359z"/>
    <path class="fil0" d="M14591 11946l867 1c39,70 57,141 57,213l-821 3c-12,-81 -45,-154 -103,-217z"/>
    <polygon class="fil1" points="5422,12860 15576,12859 15578,13031 5423,13032 "/>
    <path class="fil2" d="M5504 13702l2452 -3c87,64 153,128 200,224l-2621 0c-25,-74 -32,-148 -31,-221z"/>
    <path class="fil2" d="M5555 14059l2777 0 318 339 6689 3c5,72 -11,139 -52,201l-6458 3c-44,-50 -86,-101 -126,-154l-3040 -1c-50,-128 -84,-259 -108,-391z"/>
    <path class="fil2" d="M5789 14780l9419 1c-23,122 -72,242 -152,359l-5644 -3 131 158 -3524 -3c-109,-162 -182,-334 -230,-512z"/>
    <path class="fil2" d="M6329 15801l3700 1 -333 -334 5179 3c-71,163 -192,340 -332,511l-4297 18 521 515 3318 2c-261,281 -552,510 -871,691l-1760 -2 565 560c-1638,525 -3092,175 -4285,-588l3668 4 -635 -667 -3881 -21c-226,-219 -407,-451 -557,-693z"/>
   </g>
   <path class="fil3" d="M4674 18888l1142 0c226,0 395,9 506,28 111,20 210,60 298,121 88,61 161,142 220,244 58,101 87,216 87,342 0,136 -36,262 -107,376 -72,114 -170,199 -293,257 174,52 307,141 400,266 93,125 140,273 140,442 0,134 -30,263 -91,389 -60,126 -142,227 -247,303 -105,75 -234,121 -387,139 -96,10 -328,17 -696,20l-972 0 0 -2927zm578 486l0 675 378 0c224,0 363,-4 418,-11 98,-11 176,-46 232,-104 57,-58 85,-133 85,-227 0,-91 -25,-164 -73,-221 -49,-56 -121,-90 -217,-102 -57,-7 -221,-10 -492,-10l-331 0zm0 1161l0 785 534 0c208,0 340,-6 396,-18 86,-16 156,-55 209,-117 54,-63 82,-145 82,-249 0,-89 -21,-163 -63,-224 -41,-62 -102,-107 -180,-135 -79,-28 -249,-42 -512,-42l-466 0zm2294 1280l0 -2927 866 0 512 1996 506 -1996 869 0 0 2927 -535 0 -2 -2305 -563 2305 -556 0 -560 -2305 -2 2305 -535 0zm3339 0l0 -2927 578 0 0 1296 1166 -1296 775 0 -1078 1139 1134 1788 -746 0 -786 -1375 -465 490 0 885 -578 0zm4201 -1076l0 -494 1240 0 0 1168c-120,120 -295,226 -524,318 -229,91 -461,137 -696,137 -299,0 -559,-64 -781,-193 -221,-129 -388,-313 -500,-553 -111,-239 -167,-500 -167,-781 0,-305 62,-577 187,-814 125,-237 307,-420 547,-547 183,-97 411,-146 683,-146 355,0 632,77 831,229 199,154 327,364 385,634l-575 110c-40,-143 -116,-257 -227,-341 -110,-83 -248,-125 -414,-125 -252,0 -452,82 -600,246 -148,165 -223,408 -223,730 0,348 75,609 226,783 150,174 347,261 591,261 121,0 242,-25 363,-73 121,-48 225,-108 312,-177l0 -372 -658 0z"/>
  </g>
 </g>
</svg>
